<svg xmlns="http://www.w3.org/2000/svg" viewBox="0 0 548.2 548.2"><defs/><path d="M109.6 164.5c20.2 0 37.4-7.2 51.7-21.5a70.4 70.4 0 0021.4-51.6c0-20.2-7.1-37.4-21.4-51.7a70.4 70.4 0 00-51.7-21.4A70.4 70.4 0 0058 39.7a70.4 70.4 0 00-21.5 51.7c0 20.1 7.2 37.4 21.5 51.6a70.4 70.4 0 0051.6 21.5zM196.6 278.5a105.6 105.6 0 0077.5 32.1c30.3 0 56-10.7 77.5-32a105.7 105.7 0 0032.1-77.6c0-30.3-10.7-56.1-32.1-77.5a105.6 105.6 0 00-77.5-32.1c-30.3 0-56.1 10.7-77.5 32-21.4 21.5-32.2 47.3-32.2 77.6s10.8 56.1 32.2 77.5zM438.5 164.5c20.2 0 37.4-7.2 51.7-21.5a70.4 70.4 0 0021.4-51.6c0-20.2-7.1-37.4-21.4-51.7a70.4 70.4 0 00-51.7-21.4A70.4 70.4 0 00387 39.7a70.4 70.4 0 00-21.4 51.7c0 20.1 7 37.4 21.4 51.6a70.4 70.4 0 0051.6 21.5zM512.8 164.5c-1.2 0-5.3 2-12.5 6-7 4-16.4 8-27.8 12-11.4 4.2-22.7 6.2-34 6.2-12.7 0-25.4-2.2-38-6.5a125.7 125.7 0 01-21.7 92c30.9.8 56.1 13 75.7 36.4h38.3c15.6 0 28.7-3.8 39.4-11.5 10.6-7.7 16-19 16-33.9 0-67.2-11.8-100.7-35.4-100.7z"/><path d="M470.1 395.3c-2-11.2-4.5-21.5-7.6-31-3-9.5-7.1-18.8-12.2-27.8-5.2-9-11-16.8-17.8-23.2a74.6 74.6 0 00-24.4-15.2 85.7 85.7 0 00-31.8-5.7c-1.9 0-6 2-12.3 6.1-6.3 4-13.2 8.7-20.8 13.7-7.6 5-17.8 9.6-30.6 13.7a125.5 125.5 0 01-77 0c-12.8-4-23-8.7-30.6-13.7l-20.8-13.7c-6.3-4-10.4-6.1-12.3-6.1A85.8 85.8 0 00140 298a74.5 74.5 0 00-24.4 15.2c-6.6 6.4-12.5 14.1-17.7 23.2-5.1 9-9.2 18.3-12.2 27.8s-5.6 19.8-7.6 31c-2 11.1-3.3 21.5-4 31.1a427 427 0 00-1 29.6c0 22.8 7 40.8 20.8 54 14 13.3 32.4 19.9 55.4 19.9H399c23 0 41.4-6.6 55.3-19.8 14-13.3 20.9-31.3 20.9-54.1 0-10.1-.3-20-1-29.6-.7-9.6-2-20-4-31.1zM169.3 274a125.7 125.7 0 01-21.7-91.8 114.7 114.7 0 01-38 6.5c-11.2 0-22.5-2-34-6.1-11.4-4.1-20.6-8.1-27.8-12.1-7.1-4-11.3-6-12.4-6C11.8 164.5 0 198 0 265.2c0 14.9 5.3 26.2 16 33.9a65.5 65.5 0 0039.4 11.5h38.2a98.4 98.4 0 0175.7-36.5z"/></svg>