<svg xmlns="http://www.w3.org/2000/svg" viewBox="0 0 50 50"><defs/><path d="M9 49h32v-4h8V33a13 13 0 00-9.2-12.4 9 9 0 00-7.3-16.2 10 10 0 00-15 0C16.7 4 16 4 15 4a9 9 0 00-4.8 16.6A13 13 0 001 33v12h8v4zm30-2H11V32v-1-.3l.2-.7v-.3l.3-.9.1-.4a11 11 0 01.4-.9l.2-.4.3-.6c0-.2.2-.4.3-.5l.3-.4a10 10 0 011.8-2l.3-.3a10.6 10.6 0 01.8-.5l.4-.3.8-.4.4-.2h.2A11 11 0 0122 21h6c1.5 0 3 .3 4.2.8l.2.1.4.2.8.4.4.3a11.3 11.3 0 013 2.8l.2.4a10.9 10.9 0 01.6 1l.2.5a10.1 10.1 0 01.4 1l.1.3.2.9.1.3a11.4 11.4 0 01.2 2v15zm8-14v10h-6V32v-1.4l-.1-.3-.2-1-.1-.4c0-.4-.2-.7-.3-1l-.1-.4a13 13 0 00-1.8-3.3l-.2-.3-.7-.8-.2-.2a13 13 0 00-1-.9c6 .2 10.7 5 10.7 11zM33.7 6.1L35 6a7 7 0 11-3.8 12.9 10 10 0 002.2-2.5v-.1l.5-.9.1-.1.4-.9v-.1l.3-.9v-.2l.2-.9v-.2a9.5 9.5 0 000-2.3v-.3a10.4 10.4 0 00-.6-2v-.3a10 10 0 00-.6-1zM31.2 6l.2.3a8 8 0 011.1 2.1v.2l.4 1v.3a8.1 8.1 0 010 2.2v.2c0 .3 0 .5-.2.8v.1a7.9 7.9 0 01-1.3 2.7 8 8 0 01-2.3 2l-.2.2h-.1a8 8 0 01-7.6 0h-.1l-.1-.1a8 8 0 01-.8-.5l-.1-.1a8 8 0 01-2-2.3 8 8 0 01-.8-1.9V13a8 8 0 01-.2-.8V12a7.9 7.9 0 010-2.2v-.2l.3-1.1v-.2a8 8 0 011.2-2.1l.2-.2a8 8 0 0112.4 0zM8 13a7 7 0 018.3-6.9l-.6 1.1v.2a9.8 9.8 0 00-.6 2v.4a10 10 0 000 2.3v.2c0 .3 0 .6.2.9v.2l.3.9v.1l.4.9v.1l.5.9a10 10 0 002.3 2.5A7 7 0 018 13zM3 43V33a11 11 0 0110.7-11l-1 1-.2.1-.7.8-.2.3a12.8 12.8 0 00-1.3 2l-.1.4-.4 1-.1.3-.3 1v.3l-.3 1v.4L9 32v11H3z"/></svg>